# xmcd
#
# Track frame offsets: 
#        150
#        18717
#        39008
#        58445
#        73909
#        94175
#        118761
#
# Disc length: 1785 seconds
#
# Revision: 0
# Processed by: cddbd v1.5.2PL0 Copyright (c) Steve Scherf et al.
# Submitted via: ExactAudioCopy v1.0b1
#
DISCID=6306f707
DTITLE=Mississippi MacDonald and The Cottonmouth Kings - Devil's Chain
DYEAR=2014
DGENRE=Blues
TTITLE0=Alan Jackson's Got Something Wrong
TTITLE1=Devil's Chain
TTITLE2=Wine, Women And Song
TTITLE3=Red Hot Mama
TTITLE4=Hey Brother! Where D'you Get That Shirt
TTITLE5=All Kinds Of Crazy
TTITLE6=Red Hot Mama (Cottonmouth Kings Mix)
EXTD=
EXTT0=
EXTT1=
EXTT2=
EXTT3=
EXTT4=
EXTT5=
EXTT6=
PLAYORDER=
